<mxfile host="app.diagrams.net" modified="2020-11-24T18:42:44.104Z" agent="5.0 (Windows NT 10.0; Win64; x64) AppleWebKit/537.36 (KHTML, like Gecko) Chrome/87.0.4280.66 Safari/537.36" etag="XQo7JEnsZTUViZ1lPNnU" version="13.10.2" type="github">
  <diagram id="6a731a19-8d31-9384-78a2-239565b7b9f0" name="Page-1">
    <mxGraphModel dx="1393" dy="1600" grid="1" gridSize="10" guides="1" tooltips="1" connect="1" arrows="1" fold="1" page="1" pageScale="1" pageWidth="1169" pageHeight="827" background="#ffffff" math="0" shadow="0">
      <root>
        <mxCell id="0" />
        <mxCell id="1" parent="0" />
        <mxCell id="1360" style="endArrow=none;strokeWidth=6;strokeColor=#f08705;html=1;exitX=0.5;exitY=0;exitDx=0;exitDy=0;" parent="1" source="kfke6XZ2EHsCcAdk1a7N-1545" target="1351" edge="1">
          <mxGeometry relative="1" as="geometry">
            <mxPoint x="1119.428070394972" y="661.5092394746043" as="sourcePoint" />
          </mxGeometry>
        </mxCell>
        <mxCell id="1361" style="endArrow=none;strokeWidth=6;strokeColor=#E85642;html=1;exitX=1;exitY=0.5;exitDx=0;exitDy=0;" parent="1" source="kfke6XZ2EHsCcAdk1a7N-1545" target="1352" edge="1">
          <mxGeometry relative="1" as="geometry">
            <mxPoint x="1215.8940269912127" y="757.975196070845" as="sourcePoint" />
            <mxPoint x="1735" y="432" as="targetPoint" />
          </mxGeometry>
        </mxCell>
        <mxCell id="1363" style="endArrow=none;strokeWidth=6;strokeColor=#736CA8;html=1;exitX=0;exitY=0.5;exitDx=0;exitDy=0;" parent="1" source="kfke6XZ2EHsCcAdk1a7N-1545" target="1516" edge="1">
          <mxGeometry relative="1" as="geometry">
            <mxPoint x="915.3338981001684" y="823.7472709794633" as="sourcePoint" />
          </mxGeometry>
        </mxCell>
        <mxCell id="1364" style="endArrow=none;strokeWidth=6;strokeColor=#736ca8;html=1;exitX=0.5;exitY=1;exitDx=0;exitDy=0;" parent="1" source="kfke6XZ2EHsCcAdk1a7N-1545" target="1354" edge="1">
          <mxGeometry relative="1" as="geometry">
            <mxPoint x="1218.2195871666527" y="902.6992437537156" as="sourcePoint" />
          </mxGeometry>
        </mxCell>
        <mxCell id="1518" value="&lt;u&gt;Product_no&lt;/u&gt;" style="ellipse;fillColor=#a29dc5;strokeWidth=3;shadow=0;html=1;fontColor=#FFFFFF;" parent="1" vertex="1">
          <mxGeometry x="800" y="640" width="120" height="40" as="geometry" />
        </mxCell>
        <mxCell id="1525" value="Product_type" style="ellipse;fillColor=#a29dc5;strokeWidth=3;shadow=0;html=1;fontColor=#FFFFFF;" parent="1" vertex="1">
          <mxGeometry x="800" y="971.5" width="120" height="40" as="geometry" />
        </mxCell>
        <mxCell id="1530" value="" style="edgeStyle=none;endArrow=none;strokeWidth=3;strokeColor=#A29DC5;html=1;" parent="1" source="1516" target="1518" edge="1">
          <mxGeometry x="-1491" y="-302.5" width="100" height="100" as="geometry">
            <mxPoint x="-1491" y="-202.5" as="sourcePoint" />
            <mxPoint x="-1391" y="-302.5" as="targetPoint" />
          </mxGeometry>
        </mxCell>
        <mxCell id="1537" value="" style="edgeStyle=none;endArrow=none;strokeWidth=3;strokeColor=#A29DC5;html=1;" parent="1" source="1516" target="1525" edge="1">
          <mxGeometry x="-1491" y="-302.5" width="100" height="100" as="geometry">
            <mxPoint x="-1491" y="-202.5" as="sourcePoint" />
            <mxPoint x="-1391" y="-302.5" as="targetPoint" />
          </mxGeometry>
        </mxCell>
        <mxCell id="1542" style="edgeStyle=none;rounded=0;html=1;exitX=0.5;exitY=1;endArrow=none;endFill=0;jettySize=auto;orthogonalLoop=1;strokeColor=#736CA8;strokeWidth=2;fillColor=#64bbe2;fontSize=20;fontColor=#23445D;" parent="1" edge="1">
          <mxGeometry relative="1" as="geometry">
            <mxPoint x="137" y="771.5" as="sourcePoint" />
            <mxPoint x="137" y="771.5" as="targetPoint" />
          </mxGeometry>
        </mxCell>
        <mxCell id="kfke6XZ2EHsCcAdk1a7N-1545" value="&lt;font style=&quot;font-size: 25px&quot;&gt;Order&lt;/font&gt;" style="rhombus;whiteSpace=wrap;html=1;rounded=0;fillColor=#cdeb8b;strokeColor=#36393d;strokeWidth=3;" vertex="1" parent="1">
          <mxGeometry x="1057" y="703.25" width="226.5" height="243.5" as="geometry" />
        </mxCell>
        <mxCell id="kfke6XZ2EHsCcAdk1a7N-1552" value="" style="group" vertex="1" connectable="0" parent="1">
          <mxGeometry x="960" y="1098" width="470" height="284.5" as="geometry" />
        </mxCell>
        <mxCell id="1459" value="&lt;u&gt;address&lt;/u&gt;" style="ellipse;fillColor=#a29dc5;strokeWidth=3;shadow=0;html=1;fontColor=#FFFFFF;" parent="kfke6XZ2EHsCcAdk1a7N-1552" vertex="1">
          <mxGeometry x="300" y="10" width="120" height="40" as="geometry" />
        </mxCell>
        <mxCell id="1462" value="contact_no" style="ellipse;fillColor=#a29dc5;strokeWidth=3;shadow=0;html=1;fontColor=#FFFFFF;" parent="kfke6XZ2EHsCcAdk1a7N-1552" vertex="1">
          <mxGeometry x="50" y="10" width="120" height="40" as="geometry" />
        </mxCell>
        <mxCell id="1466" value="" style="edgeStyle=none;endArrow=none;strokeWidth=3;strokeColor=#A29DC5;html=1;" parent="kfke6XZ2EHsCcAdk1a7N-1552" source="1354" target="1462" edge="1">
          <mxGeometry x="-1300" y="-1190.5" width="100" height="100" as="geometry">
            <mxPoint x="-1300" y="-1090.5" as="sourcePoint" />
            <mxPoint x="-1200" y="-1190.5" as="targetPoint" />
          </mxGeometry>
        </mxCell>
        <mxCell id="1541" value="" style="edgeStyle=none;endArrow=none;strokeWidth=3;strokeColor=#A29DC5;html=1;" parent="kfke6XZ2EHsCcAdk1a7N-1552" source="1354" target="1459" edge="1">
          <mxGeometry x="-2725" y="-1495.5" width="100" height="100" as="geometry">
            <mxPoint x="-2725" y="-1395.5" as="sourcePoint" />
            <mxPoint x="-2625" y="-1495.5" as="targetPoint" />
          </mxGeometry>
        </mxCell>
        <mxCell id="1458" value="email" style="ellipse;fillColor=#a29dc5;strokeWidth=3;shadow=0;html=1;fontColor=#FFFFFF;" parent="kfke6XZ2EHsCcAdk1a7N-1552" vertex="1">
          <mxGeometry x="40" y="221" width="120" height="40" as="geometry" />
        </mxCell>
        <mxCell id="1465" value="" style="edgeStyle=none;endArrow=none;strokeWidth=3;strokeColor=#A29DC5;html=1;" parent="kfke6XZ2EHsCcAdk1a7N-1552" source="1354" target="1458" edge="1">
          <mxGeometry x="-1300" y="-959.5" width="100" height="100" as="geometry">
            <mxPoint x="-1300" y="-859.5" as="sourcePoint" />
            <mxPoint x="-1200" y="-959.5" as="targetPoint" />
          </mxGeometry>
        </mxCell>
        <mxCell id="1460" value="name" style="ellipse;fillColor=#a29dc5;strokeWidth=3;shadow=0;html=1;fontColor=#FFFFFF;" parent="kfke6XZ2EHsCcAdk1a7N-1552" vertex="1">
          <mxGeometry x="280" y="231" width="120" height="40" as="geometry" />
        </mxCell>
        <mxCell id="1463" value="" style="edgeStyle=none;endArrow=none;strokeWidth=3;strokeColor=#A29DC5;html=1;" parent="kfke6XZ2EHsCcAdk1a7N-1552" source="1354" target="1460" edge="1">
          <mxGeometry x="-1300" y="-959.5" width="100" height="100" as="geometry">
            <mxPoint x="-1300" y="-859.5" as="sourcePoint" />
            <mxPoint x="-1200" y="-959.5" as="targetPoint" />
          </mxGeometry>
        </mxCell>
        <mxCell id="1354" value="Outlet" style="rectangle;whiteSpace=wrap;html=1;shadow=0;fontFamily=Helvetica;fontSize=20;fontColor=#FFFFFF;align=center;strokeWidth=3;fillColor=#736ca8;" parent="kfke6XZ2EHsCcAdk1a7N-1552" vertex="1">
          <mxGeometry x="150" y="130" width="120" height="60" as="geometry" />
        </mxCell>
        <mxCell id="kfke6XZ2EHsCcAdk1a7N-1556" value="" style="group" vertex="1" connectable="0" parent="1">
          <mxGeometry x="1471" y="591.5" width="619" height="420" as="geometry" />
        </mxCell>
        <mxCell id="kfke6XZ2EHsCcAdk1a7N-1597" value="" style="group" vertex="1" connectable="0" parent="kfke6XZ2EHsCcAdk1a7N-1556">
          <mxGeometry x="20" width="599" height="420" as="geometry" />
        </mxCell>
        <mxCell id="1352" value="Employee" style="rectangle;whiteSpace=wrap;html=1;shadow=0;fontFamily=Helvetica;fontSize=20;fontColor=#FFFFFF;align=center;strokeWidth=3;fillColor=#E85642;" parent="kfke6XZ2EHsCcAdk1a7N-1597" vertex="1">
          <mxGeometry x="209" y="205" width="120" height="60" as="geometry" />
        </mxCell>
        <mxCell id="1415" value="last_name" style="ellipse;fillColor=#f08e81;strokeWidth=3;shadow=0;html=1;fontColor=#FFFFFF;" parent="kfke6XZ2EHsCcAdk1a7N-1597" vertex="1">
          <mxGeometry y="85" width="120" height="40" as="geometry" />
        </mxCell>
        <mxCell id="1416" value="dob" style="ellipse;fillColor=#f08e81;strokeWidth=3;shadow=0;html=1;fontColor=#FFFFFF;" parent="kfke6XZ2EHsCcAdk1a7N-1597" vertex="1">
          <mxGeometry x="130" y="40" width="120" height="40" as="geometry" />
        </mxCell>
        <mxCell id="1417" value="gender" style="ellipse;fillColor=#f08e81;strokeWidth=3;shadow=0;html=1;fontColor=#FFFFFF;" parent="kfke6XZ2EHsCcAdk1a7N-1597" vertex="1">
          <mxGeometry x="255" width="120" height="40" as="geometry" />
        </mxCell>
        <mxCell id="1418" value="email" style="ellipse;fillColor=#f08e81;strokeWidth=3;shadow=0;html=1;fontColor=#FFFFFF;" parent="kfke6XZ2EHsCcAdk1a7N-1597" vertex="1">
          <mxGeometry x="380" y="40" width="120" height="40" as="geometry" />
        </mxCell>
        <mxCell id="1419" value="contact_no" style="ellipse;fillColor=#f08e81;strokeWidth=3;shadow=0;html=1;fontColor=#FFFFFF;" parent="kfke6XZ2EHsCcAdk1a7N-1597" vertex="1">
          <mxGeometry x="435" y="125" width="120" height="40" as="geometry" />
        </mxCell>
        <mxCell id="1421" value="Pelican" style="ellipse;fillColor=#f08e81;strokeWidth=3;shadow=0;html=1;fontColor=#FFFFFF;" parent="kfke6XZ2EHsCcAdk1a7N-1597" vertex="1">
          <mxGeometry x="430" y="370" width="120" height="40" as="geometry" />
        </mxCell>
        <mxCell id="1426" value="" style="edgeStyle=none;endArrow=none;strokeWidth=3;strokeColor=#F08E81;html=1;" parent="kfke6XZ2EHsCcAdk1a7N-1597" source="1352" target="1415" edge="1">
          <mxGeometry x="-1480" y="-60" width="100" height="100" as="geometry">
            <mxPoint x="-1480" y="40" as="sourcePoint" />
            <mxPoint x="-1380" y="-60" as="targetPoint" />
          </mxGeometry>
        </mxCell>
        <mxCell id="1427" value="" style="edgeStyle=none;endArrow=none;strokeWidth=3;strokeColor=#F08E81;html=1;" parent="kfke6XZ2EHsCcAdk1a7N-1597" source="1352" target="1416" edge="1">
          <mxGeometry x="-1480" y="-60" width="100" height="100" as="geometry">
            <mxPoint x="-1480" y="40" as="sourcePoint" />
            <mxPoint x="-1380" y="-60" as="targetPoint" />
          </mxGeometry>
        </mxCell>
        <mxCell id="1428" value="" style="edgeStyle=none;endArrow=none;strokeWidth=3;strokeColor=#F08E81;html=1;" parent="kfke6XZ2EHsCcAdk1a7N-1597" source="1352" target="1417" edge="1">
          <mxGeometry x="-1480" y="-60" width="100" height="100" as="geometry">
            <mxPoint x="-1480" y="40" as="sourcePoint" />
            <mxPoint x="-1380" y="-60" as="targetPoint" />
          </mxGeometry>
        </mxCell>
        <mxCell id="1429" value="" style="edgeStyle=none;endArrow=none;strokeWidth=3;strokeColor=#F08E81;html=1;" parent="kfke6XZ2EHsCcAdk1a7N-1597" source="1352" target="1418" edge="1">
          <mxGeometry x="-1480" y="-60" width="100" height="100" as="geometry">
            <mxPoint x="-1480" y="40" as="sourcePoint" />
            <mxPoint x="-1380" y="-60" as="targetPoint" />
          </mxGeometry>
        </mxCell>
        <mxCell id="1430" value="" style="edgeStyle=none;endArrow=none;strokeWidth=3;strokeColor=#F08E81;html=1;" parent="kfke6XZ2EHsCcAdk1a7N-1597" source="1352" target="1419" edge="1">
          <mxGeometry x="-1480" y="-60" width="100" height="100" as="geometry">
            <mxPoint x="-1480" y="40" as="sourcePoint" />
            <mxPoint x="-1380" y="-60" as="targetPoint" />
          </mxGeometry>
        </mxCell>
        <mxCell id="1433" value="" style="edgeStyle=none;endArrow=none;strokeWidth=3;strokeColor=#F08E81;html=1;" parent="kfke6XZ2EHsCcAdk1a7N-1597" source="1352" target="1421" edge="1">
          <mxGeometry x="-1480" y="-60" width="100" height="100" as="geometry">
            <mxPoint x="-1480" y="40" as="sourcePoint" />
            <mxPoint x="-1380" y="-60" as="targetPoint" />
          </mxGeometry>
        </mxCell>
        <mxCell id="1413" value="&lt;u&gt;&lt;b&gt;employee_id&lt;/b&gt;&lt;/u&gt;" style="ellipse;fillColor=#f08e81;strokeWidth=3;shadow=0;html=1;fontColor=#FFFFFF;" parent="kfke6XZ2EHsCcAdk1a7N-1597" vertex="1">
          <mxGeometry x="262.5" y="348.5" width="120" height="40" as="geometry" />
        </mxCell>
        <mxCell id="1424" value="" style="edgeStyle=none;endArrow=none;strokeWidth=3;strokeColor=#F08E81;html=1;" parent="kfke6XZ2EHsCcAdk1a7N-1597" source="1352" target="1413" edge="1">
          <mxGeometry x="-1480" y="-60" width="100" height="100" as="geometry">
            <mxPoint x="-1480" y="40" as="sourcePoint" />
            <mxPoint x="-1380" y="-60" as="targetPoint" />
          </mxGeometry>
        </mxCell>
        <mxCell id="1412" value="Pigeon" style="ellipse;fillColor=#f08e81;strokeWidth=3;shadow=0;html=1;fontColor=#FFFFFF;" parent="kfke6XZ2EHsCcAdk1a7N-1597" vertex="1">
          <mxGeometry x="500" y="218.5" width="99" height="33" as="geometry" />
        </mxCell>
        <mxCell id="1431" value="" style="edgeStyle=none;endArrow=none;strokeWidth=3;strokeColor=#F08E81;html=1;" parent="kfke6XZ2EHsCcAdk1a7N-1597" source="1352" target="1412" edge="1">
          <mxGeometry x="-1230" y="-61.5" width="100" height="100" as="geometry">
            <mxPoint x="-1230" y="38.5" as="sourcePoint" />
            <mxPoint x="-1130" y="-61.5" as="targetPoint" />
          </mxGeometry>
        </mxCell>
        <mxCell id="1414" value="first_name" style="ellipse;fillColor=#f08e81;strokeWidth=3;shadow=0;html=1;fontColor=#FFFFFF;" parent="kfke6XZ2EHsCcAdk1a7N-1597" vertex="1">
          <mxGeometry x="99" y="380" width="120" height="40" as="geometry" />
        </mxCell>
        <mxCell id="1514" style="edgeStyle=orthogonalEdgeStyle;rounded=0;html=1;exitX=0.75;exitY=0;entryX=0.75;entryY=0;startArrow=none;startFill=0;endArrow=block;endFill=1;jettySize=auto;orthogonalLoop=1;strokeColor=#12aab5;strokeWidth=6;fontSize=20;fontColor=#2F5B7C;" parent="kfke6XZ2EHsCcAdk1a7N-1597" source="1414" target="1414" edge="1">
          <mxGeometry relative="1" as="geometry" />
        </mxCell>
        <mxCell id="1425" value="" style="edgeStyle=none;endArrow=none;strokeWidth=3;strokeColor=#F08E81;html=1;" parent="kfke6XZ2EHsCcAdk1a7N-1597" target="1414" edge="1">
          <mxGeometry x="-1391" y="-60" width="100" height="100" as="geometry">
            <mxPoint x="219" y="265.5" as="sourcePoint" />
            <mxPoint x="-1291" y="-60" as="targetPoint" />
          </mxGeometry>
        </mxCell>
        <mxCell id="1422" value="Swallow" style="ellipse;fillColor=#f08e81;strokeWidth=3;shadow=0;html=1;fontColor=#FFFFFF;" parent="kfke6XZ2EHsCcAdk1a7N-1597" vertex="1">
          <mxGeometry x="479" y="278.5" width="120" height="40" as="geometry" />
        </mxCell>
        <mxCell id="1432" value="" style="edgeStyle=none;endArrow=none;strokeWidth=3;strokeColor=#F08E81;html=1;" parent="kfke6XZ2EHsCcAdk1a7N-1597" source="1352" target="1422" edge="1">
          <mxGeometry x="-1141" y="-61.5" width="100" height="100" as="geometry">
            <mxPoint x="-1141" y="38.5" as="sourcePoint" />
            <mxPoint x="-1041" y="-61.5" as="targetPoint" />
          </mxGeometry>
        </mxCell>
        <mxCell id="kfke6XZ2EHsCcAdk1a7N-1561" value="email" style="ellipse;strokeColor=#36393d;strokeWidth=3;shadow=0;html=1;fillColor=#DAFA94;" vertex="1" parent="1">
          <mxGeometry x="1260" y="941.11" width="120" height="40" as="geometry" />
        </mxCell>
        <mxCell id="kfke6XZ2EHsCcAdk1a7N-1562" value="" style="edgeStyle=none;endArrow=none;strokeWidth=3;strokeColor=#36393d;html=1;exitX=1;exitY=1;exitDx=0;exitDy=0;fillColor=#cdeb8b;" edge="1" parent="1" target="kfke6XZ2EHsCcAdk1a7N-1561" source="kfke6XZ2EHsCcAdk1a7N-1545">
          <mxGeometry x="18.5" y="526.5" width="100" height="100" as="geometry">
            <mxPoint x="1220" y="760" as="sourcePoint" />
            <mxPoint x="118.5" y="526.5" as="targetPoint" />
          </mxGeometry>
        </mxCell>
        <mxCell id="kfke6XZ2EHsCcAdk1a7N-1563" value="&lt;u&gt;order_id&lt;/u&gt;" style="ellipse;strokeColor=#36393d;strokeWidth=3;shadow=0;html=1;fillColor=#DAFA94;" vertex="1" parent="1">
          <mxGeometry x="1260" y="690" width="120" height="40" as="geometry" />
        </mxCell>
        <mxCell id="kfke6XZ2EHsCcAdk1a7N-1564" value="" style="edgeStyle=none;endArrow=none;strokeWidth=3;strokeColor=#36393d;html=1;exitX=1;exitY=0;exitDx=0;exitDy=0;fillColor=#cdeb8b;" edge="1" parent="1" target="kfke6XZ2EHsCcAdk1a7N-1563" source="kfke6XZ2EHsCcAdk1a7N-1545">
          <mxGeometry x="-26.369999999999997" y="483.87" width="100" height="100" as="geometry">
            <mxPoint x="1180.0049999999997" y="721.495" as="sourcePoint" />
            <mxPoint x="73.63" y="483.87" as="targetPoint" />
          </mxGeometry>
        </mxCell>
        <mxCell id="kfke6XZ2EHsCcAdk1a7N-1566" value="email" style="ellipse;strokeColor=#36393d;strokeWidth=3;shadow=0;html=1;fillColor=#DAFA94;" vertex="1" parent="1">
          <mxGeometry x="960.0000000000001" y="690" width="120" height="40" as="geometry" />
        </mxCell>
        <mxCell id="kfke6XZ2EHsCcAdk1a7N-1567" value="" style="edgeStyle=none;endArrow=none;strokeWidth=3;strokeColor=#36393d;html=1;fillColor=#cdeb8b;" edge="1" parent="1" target="kfke6XZ2EHsCcAdk1a7N-1566" source="kfke6XZ2EHsCcAdk1a7N-1545">
          <mxGeometry x="-286.37" y="395.19" width="100" height="100" as="geometry">
            <mxPoint x="920.005" y="632.815" as="sourcePoint" />
            <mxPoint x="-186.37" y="395.19" as="targetPoint" />
          </mxGeometry>
        </mxCell>
        <mxCell id="kfke6XZ2EHsCcAdk1a7N-1568" value="quantity" style="ellipse;strokeColor=#36393d;strokeWidth=3;shadow=0;html=1;fillColor=#DAFA94;" vertex="1" parent="1">
          <mxGeometry x="960.0000000000001" y="946.75" width="120" height="40" as="geometry" />
        </mxCell>
        <mxCell id="kfke6XZ2EHsCcAdk1a7N-1569" value="" style="edgeStyle=none;endArrow=none;strokeWidth=3;strokeColor=#36393d;html=1;fillColor=#cdeb8b;" edge="1" parent="1" target="kfke6XZ2EHsCcAdk1a7N-1568" source="kfke6XZ2EHsCcAdk1a7N-1545">
          <mxGeometry x="-297" y="836.3" width="100" height="100" as="geometry">
            <mxPoint x="1110.6341729513238" y="1185.99708117595" as="sourcePoint" />
            <mxPoint x="-197" y="836.3" as="targetPoint" />
          </mxGeometry>
        </mxCell>
        <mxCell id="kfke6XZ2EHsCcAdk1a7N-1570" value="&lt;font style=&quot;font-size: 25px&quot;&gt;Workin&lt;/font&gt;" style="rhombus;whiteSpace=wrap;html=1;rounded=0;fillColor=#ffcccc;strokeColor=#36393d;strokeWidth=3;" vertex="1" parent="1">
          <mxGeometry x="1630" y="1050" width="170" height="160" as="geometry" />
        </mxCell>
        <mxCell id="kfke6XZ2EHsCcAdk1a7N-1560" value="" style="edgeStyle=none;endArrow=none;strokeWidth=5;strokeColor=#F08E81;html=1;exitX=0.379;exitY=1.021;exitDx=0;exitDy=0;exitPerimeter=0;entryX=0.5;entryY=0;entryDx=0;entryDy=0;shape=link;" edge="1" parent="1" source="1352" target="kfke6XZ2EHsCcAdk1a7N-1570">
          <mxGeometry x="-1488.75" y="27" width="100" height="100" as="geometry">
            <mxPoint x="2085.001986191509" y="942" as="sourcePoint" />
            <mxPoint x="2084" y="1070" as="targetPoint" />
          </mxGeometry>
        </mxCell>
        <mxCell id="kfke6XZ2EHsCcAdk1a7N-1571" value="Pelican" style="ellipse;strokeWidth=3;shadow=0;html=1;strokeColor=#36393d;fillColor=#ffcccc;" vertex="1" parent="1">
          <mxGeometry x="1880" y="1110" width="120" height="40" as="geometry" />
        </mxCell>
        <mxCell id="kfke6XZ2EHsCcAdk1a7N-1572" value="" style="edgeStyle=none;endArrow=none;strokeWidth=3;strokeColor=#36393d;html=1;fillColor=#ffff88;exitX=1;exitY=0.5;exitDx=0;exitDy=0;" edge="1" parent="1" target="kfke6XZ2EHsCcAdk1a7N-1571" source="kfke6XZ2EHsCcAdk1a7N-1570">
          <mxGeometry x="-1396.76" y="253" width="100" height="100" as="geometry">
            <mxPoint x="2190" y="1190" as="sourcePoint" />
            <mxPoint x="-1296.76" y="253" as="targetPoint" />
          </mxGeometry>
        </mxCell>
        <mxCell id="kfke6XZ2EHsCcAdk1a7N-1573" value="&lt;font style=&quot;font-size: 25px&quot;&gt;Manages&lt;/font&gt;" style="rhombus;whiteSpace=wrap;html=1;rounded=0;strokeColor=#36393d;strokeWidth=3;fillColor=#ffcccc;" vertex="1" parent="1">
          <mxGeometry x="1400" y="960" width="170" height="173.5" as="geometry" />
        </mxCell>
        <mxCell id="kfke6XZ2EHsCcAdk1a7N-1574" value="" style="edgeStyle=none;endArrow=none;strokeWidth=6;strokeColor=#F08E81;html=1;exitX=0;exitY=0.75;exitDx=0;exitDy=0;entryX=0.5;entryY=0;entryDx=0;entryDy=0;" edge="1" parent="1" source="1352" target="kfke6XZ2EHsCcAdk1a7N-1573">
          <mxGeometry x="-1702" y="56.120000000000005" width="100" height="100" as="geometry">
            <mxPoint x="1871.23" y="885.38" as="sourcePoint" />
            <mxPoint x="1870" y="1094.62" as="targetPoint" />
          </mxGeometry>
        </mxCell>
        <mxCell id="kfke6XZ2EHsCcAdk1a7N-1577" style="edgeStyle=orthogonalEdgeStyle;rounded=0;orthogonalLoop=1;jettySize=auto;html=1;exitX=0.75;exitY=0;exitDx=0;exitDy=0;endArrow=block;endFill=0;strokeWidth=6;entryX=0;entryY=0.5;entryDx=0;entryDy=0;strokeColor=#736CA8;shape=flexArrow;" edge="1" parent="1" source="1354" target="kfke6XZ2EHsCcAdk1a7N-1573">
          <mxGeometry relative="1" as="geometry">
            <mxPoint x="1560" y="1090" as="targetPoint" />
          </mxGeometry>
        </mxCell>
        <mxCell id="kfke6XZ2EHsCcAdk1a7N-1584" style="edgeStyle=orthogonalEdgeStyle;rounded=0;orthogonalLoop=1;jettySize=auto;html=1;exitX=1;exitY=0.25;exitDx=0;exitDy=0;endArrow=none;endFill=0;strokeColor=#736CA8;strokeWidth=6;entryX=0.5;entryY=1;entryDx=0;entryDy=0;" edge="1" parent="1" source="1354" target="kfke6XZ2EHsCcAdk1a7N-1570">
          <mxGeometry relative="1" as="geometry">
            <mxPoint x="1970" y="1320" as="targetPoint" />
          </mxGeometry>
        </mxCell>
        <mxCell id="kfke6XZ2EHsCcAdk1a7N-1590" style="edgeStyle=orthogonalEdgeStyle;rounded=0;orthogonalLoop=1;jettySize=auto;html=1;exitX=0.5;exitY=1;exitDx=0;exitDy=0;entryX=0.5;entryY=0;entryDx=0;entryDy=0;endArrow=none;endFill=0;strokeColor=#736CA8;strokeWidth=6;" edge="1" parent="1" source="1516" target="kfke6XZ2EHsCcAdk1a7N-1589">
          <mxGeometry relative="1" as="geometry" />
        </mxCell>
        <mxCell id="1516" value="Product" style="rectangle;whiteSpace=wrap;html=1;shadow=0;fontFamily=Helvetica;fontSize=20;fontColor=#FFFFFF;align=center;strokeWidth=3;fillColor=#736ca8;" parent="1" vertex="1">
          <mxGeometry x="715.5" y="794.25" width="120" height="61.5" as="geometry" />
        </mxCell>
        <mxCell id="kfke6XZ2EHsCcAdk1a7N-1586" style="edgeStyle=orthogonalEdgeStyle;rounded=0;orthogonalLoop=1;jettySize=auto;html=1;exitX=0.5;exitY=1;exitDx=0;exitDy=0;entryX=0.5;entryY=0;entryDx=0;entryDy=0;endArrow=none;endFill=0;strokeColor=#736CA8;strokeWidth=6;" edge="1" parent="1" source="kfke6XZ2EHsCcAdk1a7N-1585" target="1516">
          <mxGeometry relative="1" as="geometry" />
        </mxCell>
        <mxCell id="kfke6XZ2EHsCcAdk1a7N-1595" value="" style="group" vertex="1" connectable="0" parent="1">
          <mxGeometry x="910" y="340" width="518.5" height="239" as="geometry" />
        </mxCell>
        <mxCell id="1394" value="&lt;font color=&quot;#000000&quot;&gt;gender&lt;/font&gt;" style="ellipse;fillColor=#f5af58;strokeWidth=3;shadow=0;html=1;fontColor=#FFFFFF;" parent="kfke6XZ2EHsCcAdk1a7N-1595" vertex="1">
          <mxGeometry x="268.5" width="120" height="40" as="geometry" />
        </mxCell>
        <mxCell id="kfke6XZ2EHsCcAdk1a7N-1593" value="" style="group" vertex="1" connectable="0" parent="kfke6XZ2EHsCcAdk1a7N-1595">
          <mxGeometry x="-10" y="14" width="518.5" height="225" as="geometry" />
        </mxCell>
        <mxCell id="1390" value="&lt;u&gt;&lt;font color=&quot;#000000&quot;&gt;Customer_id&lt;/font&gt;&lt;/u&gt;" style="ellipse;fillColor=#f5af58;strokeWidth=3;shadow=0;html=1;fontColor=#FFFFFF;" parent="kfke6XZ2EHsCcAdk1a7N-1593" vertex="1">
          <mxGeometry x="8.5" y="185" width="120" height="40" as="geometry" />
        </mxCell>
        <mxCell id="1391" value="&lt;font color=&quot;#000000&quot;&gt;first_name&lt;/font&gt;" style="ellipse;fillColor=#f5af58;strokeWidth=3;shadow=0;html=1;fontColor=#FFFFFF;" parent="kfke6XZ2EHsCcAdk1a7N-1593" vertex="1">
          <mxGeometry y="115" width="120" height="40" as="geometry" />
        </mxCell>
        <mxCell id="1392" value="&lt;font color=&quot;#000000&quot;&gt;last_name&lt;/font&gt;" style="ellipse;fillColor=#f5af58;strokeWidth=3;shadow=0;html=1;fontColor=#FFFFFF;" parent="kfke6XZ2EHsCcAdk1a7N-1593" vertex="1">
          <mxGeometry x="40" y="43.5" width="120" height="40" as="geometry" />
        </mxCell>
        <mxCell id="1393" value="&lt;font color=&quot;#000000&quot;&gt;dob&lt;/font&gt;" style="ellipse;fillColor=#f5af58;strokeWidth=3;shadow=0;html=1;fontColor=#FFFFFF;" parent="kfke6XZ2EHsCcAdk1a7N-1593" vertex="1">
          <mxGeometry x="128.5" width="120" height="40" as="geometry" />
        </mxCell>
        <mxCell id="kfke6XZ2EHsCcAdk1a7N-1547" style="edgeStyle=orthogonalEdgeStyle;rounded=0;orthogonalLoop=1;jettySize=auto;html=1;" edge="1" parent="kfke6XZ2EHsCcAdk1a7N-1593">
          <mxGeometry relative="1" as="geometry">
            <mxPoint x="443.3333333333335" y="53.5" as="targetPoint" />
            <mxPoint x="443" y="43.5" as="sourcePoint" />
          </mxGeometry>
        </mxCell>
        <mxCell id="1395" value="&lt;font color=&quot;#000000&quot;&gt;email&lt;/font&gt;" style="ellipse;fillColor=#f5af58;strokeWidth=3;shadow=0;html=1;fontColor=#FFFFFF;" parent="kfke6XZ2EHsCcAdk1a7N-1593" vertex="1">
          <mxGeometry x="383.5" y="20" width="120" height="40" as="geometry" />
        </mxCell>
        <mxCell id="1396" value="&lt;font color=&quot;#000000&quot;&gt;contact_no&lt;/font&gt;" style="ellipse;fillColor=#f5af58;strokeWidth=3;shadow=0;html=1;fontColor=#FFFFFF;" parent="kfke6XZ2EHsCcAdk1a7N-1593" vertex="1">
          <mxGeometry x="398.5" y="100" width="120" height="40" as="geometry" />
        </mxCell>
        <mxCell id="1397" value="&lt;font color=&quot;#000000&quot;&gt;points&lt;/font&gt;" style="ellipse;fillColor=#f5af58;strokeWidth=3;shadow=0;html=1;fontColor=#FFFFFF;" parent="kfke6XZ2EHsCcAdk1a7N-1593" vertex="1">
          <mxGeometry x="393.5" y="173.5" width="120" height="40" as="geometry" />
        </mxCell>
        <mxCell id="1402" value="" style="edgeStyle=none;endArrow=none;strokeWidth=3;strokeColor=#F5AF58;html=1;" parent="kfke6XZ2EHsCcAdk1a7N-1593" source="1351" target="1390" edge="1">
          <mxGeometry x="-896.5" y="-105" width="100" height="100" as="geometry">
            <mxPoint x="-896.5" y="-5" as="sourcePoint" />
            <mxPoint x="-796.5" y="-105" as="targetPoint" />
          </mxGeometry>
        </mxCell>
        <mxCell id="1403" value="" style="edgeStyle=none;endArrow=none;strokeWidth=3;strokeColor=#F5AF58;html=1;" parent="kfke6XZ2EHsCcAdk1a7N-1593" source="1351" target="1391" edge="1">
          <mxGeometry x="-896.5" y="-105" width="100" height="100" as="geometry">
            <mxPoint x="-896.5" y="-5" as="sourcePoint" />
            <mxPoint x="-796.5" y="-105" as="targetPoint" />
          </mxGeometry>
        </mxCell>
        <mxCell id="1404" value="" style="edgeStyle=none;endArrow=none;strokeWidth=3;strokeColor=#F5AF58;html=1;" parent="kfke6XZ2EHsCcAdk1a7N-1593" source="1351" target="1392" edge="1">
          <mxGeometry x="-896.5" y="-105" width="100" height="100" as="geometry">
            <mxPoint x="-896.5" y="-5" as="sourcePoint" />
            <mxPoint x="-796.5" y="-105" as="targetPoint" />
          </mxGeometry>
        </mxCell>
        <mxCell id="1405" value="" style="edgeStyle=none;endArrow=none;strokeWidth=3;strokeColor=#F5AF58;html=1;" parent="kfke6XZ2EHsCcAdk1a7N-1593" source="1351" target="1393" edge="1">
          <mxGeometry x="-896.5" y="-105" width="100" height="100" as="geometry">
            <mxPoint x="-896.5" y="-5" as="sourcePoint" />
            <mxPoint x="-796.5" y="-105" as="targetPoint" />
          </mxGeometry>
        </mxCell>
        <mxCell id="1407" value="" style="edgeStyle=none;endArrow=none;strokeWidth=3;strokeColor=#F5AF58;html=1;" parent="kfke6XZ2EHsCcAdk1a7N-1593" source="1351" target="1395" edge="1">
          <mxGeometry x="-896.5" y="-105" width="100" height="100" as="geometry">
            <mxPoint x="-896.5" y="-5" as="sourcePoint" />
            <mxPoint x="-796.5" y="-105" as="targetPoint" />
          </mxGeometry>
        </mxCell>
        <mxCell id="1408" value="" style="edgeStyle=none;endArrow=none;strokeWidth=3;strokeColor=#F5AF58;html=1;" parent="kfke6XZ2EHsCcAdk1a7N-1593" source="1351" target="1396" edge="1">
          <mxGeometry x="-896.5" y="-105" width="100" height="100" as="geometry">
            <mxPoint x="-896.5" y="-5" as="sourcePoint" />
            <mxPoint x="-796.5" y="-105" as="targetPoint" />
          </mxGeometry>
        </mxCell>
        <mxCell id="1409" value="" style="edgeStyle=none;endArrow=none;strokeWidth=3;strokeColor=#F5AF58;html=1;" parent="kfke6XZ2EHsCcAdk1a7N-1593" source="1351" target="1397" edge="1">
          <mxGeometry x="-896.5" y="-105" width="100" height="100" as="geometry">
            <mxPoint x="-896.5" y="-5" as="sourcePoint" />
            <mxPoint x="-796.5" y="-105" as="targetPoint" />
          </mxGeometry>
        </mxCell>
        <mxCell id="1351" value="Customer" style="rectangle;whiteSpace=wrap;html=1;shadow=0;fontFamily=Helvetica;fontSize=20;fontColor=#FFFFFF;align=center;strokeWidth=3;fillColor=#F08705;gradientColor=none;" parent="kfke6XZ2EHsCcAdk1a7N-1593" vertex="1">
          <mxGeometry x="210.25" y="140" width="120" height="60" as="geometry" />
        </mxCell>
        <mxCell id="1406" value="" style="edgeStyle=none;endArrow=none;strokeWidth=3;strokeColor=#F5AF58;html=1;" parent="kfke6XZ2EHsCcAdk1a7N-1595" source="1351" target="1394" edge="1">
          <mxGeometry x="-1798" y="-345" width="100" height="100" as="geometry">
            <mxPoint x="-1798" y="-245" as="sourcePoint" />
            <mxPoint x="-1698" y="-345" as="targetPoint" />
          </mxGeometry>
        </mxCell>
        <mxCell id="kfke6XZ2EHsCcAdk1a7N-1625" value="" style="group" vertex="1" connectable="0" parent="1">
          <mxGeometry x="410" y="910.0012867819858" width="645.8624558616175" height="535.7187132180143" as="geometry" />
        </mxCell>
        <mxCell id="kfke6XZ2EHsCcAdk1a7N-1588" value="" style="group;" vertex="1" connectable="0" parent="kfke6XZ2EHsCcAdk1a7N-1625">
          <mxGeometry width="645.8624558616175" height="535.7187132180143" as="geometry" />
        </mxCell>
        <mxCell id="1356" value="Juice" style="rectangle;whiteSpace=wrap;html=1;shadow=0;fontFamily=Helvetica;fontSize=20;fontColor=#FFFFFF;align=center;strokeWidth=3;fillColor=#E85642;strokeColor=none;" parent="kfke6XZ2EHsCcAdk1a7N-1588" vertex="1">
          <mxGeometry x="210" y="253.22" width="120" height="46.78" as="geometry" />
        </mxCell>
        <mxCell id="1490" value="&lt;font color=&quot;#000000&quot;&gt;Philadendron&lt;/font&gt;" style="ellipse;fillColor=#f08e81;strokeWidth=3;shadow=0;html=1;fontColor=#FFFFFF;" parent="kfke6XZ2EHsCcAdk1a7N-1588" vertex="1">
          <mxGeometry x="385.86" y="169.99871321801427" width="120" height="40" as="geometry" />
        </mxCell>
        <mxCell id="1491" value="&lt;font color=&quot;#000000&quot;&gt;Dahlia&lt;/font&gt;" style="ellipse;fillColor=#f08e81;strokeWidth=3;shadow=0;html=1;fontColor=#FFFFFF;" parent="kfke6XZ2EHsCcAdk1a7N-1588" vertex="1">
          <mxGeometry x="385.86" y="330.99871321801425" width="120" height="40" as="geometry" />
        </mxCell>
        <mxCell id="1503" value="" style="edgeStyle=none;endArrow=none;strokeWidth=3;strokeColor=#F08E81;html=1;" parent="kfke6XZ2EHsCcAdk1a7N-1588" source="1356" target="1490" edge="1">
          <mxGeometry x="-160" y="-866.7812867819857" width="100" height="100" as="geometry">
            <mxPoint x="-160" y="-766.7812867819857" as="sourcePoint" />
            <mxPoint x="-60" y="-866.7812867819857" as="targetPoint" />
          </mxGeometry>
        </mxCell>
        <mxCell id="1504" value="" style="edgeStyle=none;endArrow=none;strokeWidth=3;strokeColor=#F08E81;html=1;" parent="kfke6XZ2EHsCcAdk1a7N-1588" source="1356" target="1491" edge="1">
          <mxGeometry x="-160" y="-866.7812867819857" width="100" height="100" as="geometry">
            <mxPoint x="-160" y="-766.7812867819857" as="sourcePoint" />
            <mxPoint x="-60" y="-866.7812867819857" as="targetPoint" />
          </mxGeometry>
        </mxCell>
        <mxCell id="kfke6XZ2EHsCcAdk1a7N-1617" value="&lt;font style=&quot;font-size: 25px&quot;&gt;IS&lt;/font&gt;" style="rhombus;whiteSpace=wrap;html=1;rounded=0;fillColor=#ffcccc;strokeColor=#36393d;strokeWidth=3;" vertex="1" parent="kfke6XZ2EHsCcAdk1a7N-1588">
          <mxGeometry x="28" y="73.39" width="134" height="136.61" as="geometry" />
        </mxCell>
        <mxCell id="kfke6XZ2EHsCcAdk1a7N-1618" value="&lt;font style=&quot;font-size: 25px&quot;&gt;IS&lt;/font&gt;" style="rhombus;whiteSpace=wrap;html=1;rounded=0;fillColor=#ffcccc;strokeColor=#36393d;strokeWidth=3;" vertex="1" parent="kfke6XZ2EHsCcAdk1a7N-1588">
          <mxGeometry x="28" y="340" width="134" height="136.86" as="geometry" />
        </mxCell>
        <mxCell id="kfke6XZ2EHsCcAdk1a7N-1622" value="" style="edgeStyle=none;endArrow=none;strokeWidth=4;strokeColor=#E85642;html=1;shape=link;endSize=4;exitX=0.5;exitY=1;exitDx=0;exitDy=0;entryX=0;entryY=0.25;entryDx=0;entryDy=0;" edge="1" parent="kfke6XZ2EHsCcAdk1a7N-1588" source="kfke6XZ2EHsCcAdk1a7N-1617" target="1356">
          <mxGeometry x="-465.4" y="-341.7812867819857" width="100" height="100" as="geometry">
            <mxPoint x="35.860000000000014" y="219.99871321801425" as="sourcePoint" />
            <mxPoint x="24.860000000000014" y="259.99871321801425" as="targetPoint" />
            <Array as="points">
              <mxPoint x="95" y="264.99871321801425" />
            </Array>
          </mxGeometry>
        </mxCell>
        <mxCell id="kfke6XZ2EHsCcAdk1a7N-1624" value="" style="edgeStyle=none;endArrow=none;strokeWidth=4;strokeColor=#E85642;html=1;shape=link;endSize=4;exitX=0.5;exitY=0;exitDx=0;exitDy=0;entryX=0;entryY=0.75;entryDx=0;entryDy=0;" edge="1" parent="kfke6XZ2EHsCcAdk1a7N-1588" source="kfke6XZ2EHsCcAdk1a7N-1618" target="1356">
          <mxGeometry x="-769.54" y="-1241.7825735639715" width="100" height="100" as="geometry">
            <mxPoint x="34.860000000000014" y="219.99871321801425" as="sourcePoint" />
            <mxPoint x="219.9999999999999" y="274.9150000000002" as="targetPoint" />
            <Array as="points">
              <mxPoint x="95" y="287.99871321801425" />
            </Array>
          </mxGeometry>
        </mxCell>
        <mxCell id="kfke6XZ2EHsCcAdk1a7N-1629" value="Non-Juice" style="rectangle;whiteSpace=wrap;html=1;shadow=0;fontFamily=Helvetica;fontSize=20;fontColor=#FFFFFF;align=center;strokeWidth=3;fillColor=#1699D3;" vertex="1" parent="kfke6XZ2EHsCcAdk1a7N-1588">
          <mxGeometry x="35" y="-17.001286781985755" width="120" height="41.5" as="geometry" />
        </mxCell>
        <mxCell id="kfke6XZ2EHsCcAdk1a7N-1630" style="endArrow=none;strokeWidth=4;strokeColor=#1699D3;html=1;shape=link;endSize=2;exitX=0.5;exitY=0;exitDx=0;exitDy=0;" edge="1" parent="kfke6XZ2EHsCcAdk1a7N-1588" target="kfke6XZ2EHsCcAdk1a7N-1629" source="kfke6XZ2EHsCcAdk1a7N-1617">
          <mxGeometry relative="1" as="geometry">
            <mxPoint x="89" y="65.99871321801425" as="sourcePoint" />
            <Array as="points" />
          </mxGeometry>
        </mxCell>
        <mxCell id="kfke6XZ2EHsCcAdk1a7N-1631" value="&lt;u&gt;&lt;font color=&quot;#000000&quot;&gt;name&lt;/font&gt;&lt;/u&gt;" style="ellipse;fillColor=#64BBE2;strokeWidth=3;shadow=0;html=1;fontColor=#FFFFFF;" vertex="1" parent="kfke6XZ2EHsCcAdk1a7N-1588">
          <mxGeometry x="160" y="-83.00128678198575" width="130" height="40" as="geometry" />
        </mxCell>
        <mxCell id="kfke6XZ2EHsCcAdk1a7N-1632" value="" style="edgeStyle=none;endArrow=none;strokeWidth=3;strokeColor=#64BBE2;html=1;" edge="1" parent="kfke6XZ2EHsCcAdk1a7N-1588" source="kfke6XZ2EHsCcAdk1a7N-1629" target="kfke6XZ2EHsCcAdk1a7N-1631">
          <mxGeometry x="-1316" y="-799.5012867819858" width="100" height="100" as="geometry">
            <mxPoint x="-1316" y="-699.5012867819858" as="sourcePoint" />
            <mxPoint x="-1216" y="-799.5012867819858" as="targetPoint" />
          </mxGeometry>
        </mxCell>
        <mxCell id="kfke6XZ2EHsCcAdk1a7N-1633" value="&lt;font color=&quot;#000000&quot;&gt;price_per_unit&lt;/font&gt;" style="ellipse;fillColor=#64BBE2;strokeWidth=3;shadow=0;html=1;fontColor=#FFFFFF;" vertex="1" parent="kfke6XZ2EHsCcAdk1a7N-1588">
          <mxGeometry x="-120" y="-77.00128678198575" width="130" height="40" as="geometry" />
        </mxCell>
        <mxCell id="kfke6XZ2EHsCcAdk1a7N-1634" value="" style="edgeStyle=none;endArrow=none;strokeWidth=3;strokeColor=#64BBE2;html=1;" edge="1" parent="kfke6XZ2EHsCcAdk1a7N-1588" source="kfke6XZ2EHsCcAdk1a7N-1629" target="kfke6XZ2EHsCcAdk1a7N-1633">
          <mxGeometry x="-716" y="-419.50128678198575" width="100" height="100" as="geometry">
            <mxPoint x="-716" y="-319.50128678198575" as="sourcePoint" />
            <mxPoint x="-616" y="-419.50128678198575" as="targetPoint" />
          </mxGeometry>
        </mxCell>
        <mxCell id="kfke6XZ2EHsCcAdk1a7N-1589" value="&lt;font style=&quot;font-size: 25px&quot;&gt;Contains&lt;/font&gt;" style="rhombus;whiteSpace=wrap;html=1;rounded=0;fillColor=#ffcccc;strokeColor=#36393d;strokeWidth=3;" vertex="1" parent="kfke6XZ2EHsCcAdk1a7N-1625">
          <mxGeometry x="191.79000000000002" y="49.998713218014245" width="158" height="160.25" as="geometry" />
        </mxCell>
        <mxCell id="1366" value="" style="edgeStyle=none;endArrow=none;strokeWidth=4;strokeColor=#E85642;html=1;exitX=0.5;exitY=1;exitDx=0;exitDy=0;shape=link;endSize=4;" parent="kfke6XZ2EHsCcAdk1a7N-1625" source="kfke6XZ2EHsCcAdk1a7N-1589" target="1356" edge="1">
          <mxGeometry x="94.5" y="568.22" width="100" height="100" as="geometry">
            <mxPoint x="907.8624558616175" y="1260.0012867819858" as="sourcePoint" />
            <mxPoint x="194.5" y="568.22" as="targetPoint" />
          </mxGeometry>
        </mxCell>
        <mxCell id="kfke6XZ2EHsCcAdk1a7N-1627" value="" style="group" vertex="1" connectable="0" parent="1">
          <mxGeometry x="600" y="380" width="329" height="343.25" as="geometry" />
        </mxCell>
        <mxCell id="kfke6XZ2EHsCcAdk1a7N-1585" value="&lt;font style=&quot;font-size: 25px&quot;&gt;Contains&lt;/font&gt;" style="rhombus;whiteSpace=wrap;html=1;rounded=0;fillColor=#ffcccc;strokeColor=#36393d;strokeWidth=3;" vertex="1" parent="kfke6XZ2EHsCcAdk1a7N-1627">
          <mxGeometry y="183" width="158" height="160.25" as="geometry" />
        </mxCell>
        <mxCell id="1350" value="Non-Juice" style="rectangle;whiteSpace=wrap;html=1;shadow=0;fontFamily=Helvetica;fontSize=20;fontColor=#FFFFFF;align=center;strokeWidth=3;fillColor=#1699D3;" parent="kfke6XZ2EHsCcAdk1a7N-1627" vertex="1">
          <mxGeometry x="19" y="100" width="120" height="41.5" as="geometry" />
        </mxCell>
        <mxCell id="1359" style="endArrow=none;strokeWidth=4;strokeColor=#1699D3;html=1;exitX=0.5;exitY=0;exitDx=0;exitDy=0;shape=link;endSize=2;" parent="kfke6XZ2EHsCcAdk1a7N-1627" source="kfke6XZ2EHsCcAdk1a7N-1585" target="1350" edge="1">
          <mxGeometry relative="1" as="geometry">
            <mxPoint x="75.5" y="191" as="sourcePoint" />
            <Array as="points" />
          </mxGeometry>
        </mxCell>
        <mxCell id="1376" value="&lt;u&gt;&lt;font color=&quot;#000000&quot;&gt;name&lt;/font&gt;&lt;/u&gt;" style="ellipse;fillColor=#64BBE2;strokeWidth=3;shadow=0;html=1;fontColor=#FFFFFF;" parent="kfke6XZ2EHsCcAdk1a7N-1627" vertex="1">
          <mxGeometry x="150" y="34" width="130" height="40" as="geometry" />
        </mxCell>
        <mxCell id="1377" value="" style="edgeStyle=none;endArrow=none;strokeWidth=3;strokeColor=#64BBE2;html=1;" parent="kfke6XZ2EHsCcAdk1a7N-1627" source="1350" target="1376" edge="1">
          <mxGeometry x="-726" y="-302.5" width="100" height="100" as="geometry">
            <mxPoint x="-726" y="-202.5" as="sourcePoint" />
            <mxPoint x="-626" y="-302.5" as="targetPoint" />
          </mxGeometry>
        </mxCell>
        <mxCell id="1375" value="&lt;font color=&quot;#000000&quot;&gt;price_per_unit&lt;/font&gt;" style="ellipse;fillColor=#64BBE2;strokeWidth=3;shadow=0;html=1;fontColor=#FFFFFF;" parent="1" vertex="1">
          <mxGeometry x="470" y="420" width="130" height="40" as="geometry" />
        </mxCell>
        <mxCell id="1387" value="" style="edgeStyle=none;endArrow=none;strokeWidth=3;strokeColor=#64BBE2;html=1;" parent="1" source="1350" target="1375" edge="1">
          <mxGeometry x="-126" y="77.5" width="100" height="100" as="geometry">
            <mxPoint x="-126" y="177.5" as="sourcePoint" />
            <mxPoint x="-26" y="77.5" as="targetPoint" />
          </mxGeometry>
        </mxCell>
        <mxCell id="kfke6XZ2EHsCcAdk1a7N-1635" value="Non-Juice" style="rectangle;whiteSpace=wrap;html=1;shadow=0;fontFamily=Helvetica;fontSize=20;fontColor=#FFFFFF;align=center;strokeWidth=3;fillColor=#1699D3;" vertex="1" parent="1">
          <mxGeometry x="445" y="1440" width="120" height="41.5" as="geometry" />
        </mxCell>
        <mxCell id="kfke6XZ2EHsCcAdk1a7N-1636" style="endArrow=none;strokeWidth=4;strokeColor=#1699D3;html=1;exitX=0.5;exitY=1;exitDx=0;exitDy=0;shape=link;endSize=2;" edge="1" parent="1" target="kfke6XZ2EHsCcAdk1a7N-1635" source="kfke6XZ2EHsCcAdk1a7N-1618">
          <mxGeometry relative="1" as="geometry">
            <mxPoint x="509" y="1509" as="sourcePoint" />
            <Array as="points" />
          </mxGeometry>
        </mxCell>
        <mxCell id="kfke6XZ2EHsCcAdk1a7N-1637" value="&lt;u&gt;&lt;font color=&quot;#000000&quot;&gt;name&lt;/font&gt;&lt;/u&gt;" style="ellipse;fillColor=#64BBE2;strokeWidth=3;shadow=0;html=1;fontColor=#FFFFFF;" vertex="1" parent="1">
          <mxGeometry x="580" y="1360" width="130" height="40" as="geometry" />
        </mxCell>
        <mxCell id="kfke6XZ2EHsCcAdk1a7N-1638" value="" style="edgeStyle=none;endArrow=none;strokeWidth=3;strokeColor=#64BBE2;html=1;" edge="1" parent="1" source="kfke6XZ2EHsCcAdk1a7N-1635" target="kfke6XZ2EHsCcAdk1a7N-1637">
          <mxGeometry x="-896" y="643.5" width="100" height="100" as="geometry">
            <mxPoint x="-896" y="743.5" as="sourcePoint" />
            <mxPoint x="-796" y="643.5" as="targetPoint" />
          </mxGeometry>
        </mxCell>
        <mxCell id="kfke6XZ2EHsCcAdk1a7N-1639" value="&lt;font color=&quot;#000000&quot;&gt;price_per_unit&lt;/font&gt;" style="ellipse;fillColor=#64BBE2;strokeWidth=3;shadow=0;html=1;fontColor=#FFFFFF;" vertex="1" parent="1">
          <mxGeometry x="300" y="1366" width="130" height="40" as="geometry" />
        </mxCell>
        <mxCell id="kfke6XZ2EHsCcAdk1a7N-1640" value="" style="edgeStyle=none;endArrow=none;strokeWidth=3;strokeColor=#64BBE2;html=1;" edge="1" parent="1" source="kfke6XZ2EHsCcAdk1a7N-1635" target="kfke6XZ2EHsCcAdk1a7N-1639">
          <mxGeometry x="-296" y="1023.5" width="100" height="100" as="geometry">
            <mxPoint x="-296" y="1123.5" as="sourcePoint" />
            <mxPoint x="-196" y="1023.5" as="targetPoint" />
          </mxGeometry>
        </mxCell>
      </root>
    </mxGraphModel>
  </diagram>
</mxfile>
